<?xml version="1.0" encoding="utf-8"?>
<!-- Generator: Adobe Illustrator 24.0.1, SVG Export Plug-In . SVG Version: 6.00 Build 0)  -->
<svg version="1.1" id="Warstwa_1" xmlns="http://www.w3.org/2000/svg" xmlns:xlink="http://www.w3.org/1999/xlink" x="0px" y="0px"
	 viewBox="0 0 160 160" style="enable-background:new 0 0 160 160;" xml:space="preserve">
<path fill='#19ABFF' d="M80,1.6c-43.1,0-78.1,35-78.1,78.1s35,78.1,78.1,78.1s78.1-35,78.1-78.1S123.1,1.6,80,1.6z M82.4,52.6
	c0.6-7.3,4.9-15.6,12.8-16.9c0.2,0,0.4,0,0.6,0c6-0.1,10.2,6,10.5,11.5c1.3,8.6-2.7,19-11.4,21.9c-1,0.3-2.1,0.4-3.2,0.2
	C84.4,67.8,81.5,59.2,82.4,52.6z M53.2,45.7c0.8-4.6,4.6-9.6,9.4-9.7c0.7,0,1.4,0.1,2.1,0.3c8,2.2,12,11.1,12.2,18.8
	c0.3,5.9-2.5,13.1-8.9,14.2c-0.9,0.1-1.8,0.1-2.7-0.1C55.7,66.3,51.5,54.9,53.2,45.7z M48.5,93.9c-10.3-2-16.6-14.4-13.5-24.1
	c1.2-3.6,4.7-5.8,8.3-5.8c1.4,0,2.8,0.4,4.1,1.1c7.9,3.9,12.5,13.7,10.2,22.2C56.6,91.3,52.8,94.6,48.5,93.9z M111.4,119
	c-2.4,5-8.8,5.8-13.5,3.8c-5.5-2.1-10.9-5.2-17-4.3c-7.2,0.4-13.4,5.3-20.6,5.1c-6,0-10.3-6.5-8.4-12.1c1.6-7.8,5.6-15,10.5-21.2
	C66.9,85,74,81.5,81,81.5c3.4,0,6.8,0.8,9.9,2.7c7.6,4.6,12.6,12.4,17.3,19.7C110.5,108.5,113.2,113.9,111.4,119z M125.7,74.6
	c-0.3,8.3-6.4,17.9-15.4,18c-6.5-0.5-9.5-8-8.4-13.7c0.8-7.8,6.6-16.2,15-16.7C123.1,62.4,126.3,69.1,125.7,74.6z"/>
</svg>
